<?xml version="1.0" encoding="UTF-8"?>
<svg width="22px" height="22px" viewBox="0 0 22 22" version="1.1" xmlns="http://www.w3.org/2000/svg" xmlns:xlink="http://www.w3.org/1999/xlink">
    <title>维修服务</title>
    <g id="--" stroke="none" stroke-width="1" fill="none" fill-rule="evenodd">
        <g id="工作台" transform="translate(-177.000000, -736.000000)" fill-rule="nonzero">
            <g id="维修服务" transform="translate(177.000000, 736.000000)">
                <rect id="矩形" fill="#1890FF" opacity="0" x="0" y="0" width="22" height="22"></rect>
                <path d="M15.675,6.69166667 L16.9583333,5.40833333 C18.7916667,7.60833333 18.7,10.8166667 16.6833333,12.8333333 C15.2166667,14.3 13.2,14.7583333 11.3666667,14.3 L7.24166667,18.425 L5.95833333,17.1416667 L4.675,15.8583333 L3.39166667,14.575 L7.51666667,10.45 C7.05833335,8.61666667 7.51666667,6.6 8.98333333,5.13333333 C11,3.11666665 14.3,3.025 16.4083333,4.85833333 L15.125,6.14166667 L13.75,7.33333333 L14.3916667,7.975 L15.675,6.69166667 Z M16.5,8.61666667 L15.7666667,9.35 L14.4833333,10.6333333 L11.1833333,7.33333333 L12.4666667,6.05 L13.2,5.31666667 C12.1916667,5.225 11,5.59166667 10.2666667,6.41666667 C8.8,7.88333335 8.8,10.175 10.2666667,11.6416667 C11.7333333,13.1083333 14.025,13.1083333 15.4916667,11.6416667 C16.225,10.725 16.5916667,9.625 16.5,8.61666667 Z M5.95833333,14.575 L7.24166667,15.8583333 L9.625,13.475 C9.35,13.2916667 9.16666667,13.1083333 8.89166667,12.925 C8.61666667,12.7416667 8.43333335,12.4666667 8.34166667,12.1916667 L5.95833333,14.575 L5.95833333,14.575 Z" id="形状" fill="#3651FF"></path>
            </g>
        </g>
    </g>
</svg>