<?xml version="1.0" encoding="UTF-8"?>
<svg width="22px" height="22px" viewBox="0 0 22 22" version="1.1" xmlns="http://www.w3.org/2000/svg" xmlns:xlink="http://www.w3.org/1999/xlink">
    <title>个人头像</title>
    <g id="--" stroke="none" stroke-width="1" fill="none" fill-rule="evenodd">
        <g id="首页" transform="translate(-325.000000, -736.000000)" fill-rule="nonzero">
            <g id="编组" transform="translate(0.000000, 729.000000)">
                <g id="个人头像" transform="translate(325.000000, 7.000000)">
                    <rect id="矩形" fill="#1890FF" opacity="0" x="0" y="0" width="22" height="22"></rect>
                    <path d="M15.5833333,15.4916667 L14.7583333,14.6666667 L8.15833333,14.6666667 L7.33333333,15.4916667 L7.33333333,16.5 L15.5833333,16.5 L15.5833333,15.4916667 Z M17.4166667,14.6666667 L17.4166667,18.3333333 L5.5,18.3333333 L5.5,14.6666667 L5.59166667,14.6666667 L7.425,12.8333333 L15.4916667,12.8333333 L17.4166667,14.6666667 L17.4166667,14.6666667 Z M15.5833333,7.79166667 C15.5833333,10.0833333 13.75,11.9166667 11.4583333,11.9166667 C9.16666665,11.9166667 7.33333333,10.0833333 7.33333333,7.79166667 C7.33333333,5.50000002 9.16666667,3.66666667 11.4583333,3.66666667 C13.75,3.66666667 15.5833333,5.5 15.5833333,7.79166667 Z M13.75,7.79166667 C13.75,6.50833333 12.7416667,5.5 11.4583333,5.5 C10.175,5.5 9.16666667,6.50833333 9.16666667,7.79166667 C9.16666667,9.07500002 10.175,10.0833333 11.4583333,10.0833333 C12.7416667,10.0833333 13.75,9.075 13.75,7.79166667 L13.75,7.79166667 Z" id="形状" fill="#545454"></path>
                </g>
            </g>
        </g>
    </g>
</svg>